<svg xmlns="http://www.w3.org/2000/svg" xmlns:xlink="http://www.w3.org/1999/xlink" viewBox="0 0 332.98 151.84"><defs><style>.cls-1{fill:none;}.cls-2{fill:#fff;}.cls-3{fill:url(#Summer);}.cls-4{clip-path:url(#clip-path);}.cls-5{fill:url(#linear-gradient);}</style><radialGradient id="Summer" cx="166.49" cy="75.92" r="129.39" gradientTransform="matrix(0.98, -0.19, 0.2, 1.03, -12.31, 29.46)" gradientUnits="userSpaceOnUse"><stop offset="0" stop-color="#fff"/><stop offset="0.09" stop-color="#ffedd8"/><stop offset="0.21" stop-color="#ffd5a7"/><stop offset="0.33" stop-color="#ffc17d"/><stop offset="0.46" stop-color="#ffb05b"/><stop offset="0.59" stop-color="#ffa340"/><stop offset="0.72" stop-color="#ff9a2d"/><stop offset="0.86" stop-color="#ff9522"/><stop offset="1" stop-color="#ff931e"/></radialGradient><clipPath id="clip-path"><path class="cls-1" d="M58.4,100.17l.33,3.55,1,3.41a.18.18,0,0,0,.21.16.19.19,0,0,0,.14-.23L60,103.48l-1.21-3.38a.17.17,0,0,0-.21-.16.18.18,0,0,0-.14.23m1.68-2.54.58,5.71,1.63,5.51a.17.17,0,0,0,.21.15c.17,0,.14-.22.14-.22L62.23,103l-1.8-5.47a.17.17,0,0,0-.21-.16h0l-.14.23m6.5-2.08.9,6.45,1.68,6.7a.42.42,0,0,0,.43.32.41.41,0,0,0,.27-.46l-.63-6.91-1.78-6.28a.41.41,0,0,0-.42-.32c-.35.07-.49.3-.45.5M62.13,96l.8,6.87,1.78,6.28a.41.41,0,0,0,.43.32.7.7,0,0,0,.1-.42l-.73-6.49-1.86-6.67a.39.39,0,0,0-.42-.31c0,.19-.14.22-.1.42m2.06-.61.84,7.07L66.85,109a.36.36,0,1,0,.7-.13l-.77-6.69-1.89-6.86a.4.4,0,0,0-.43-.31c-.17,0-.13.22-.27.45M68.06,91l1.52,10.54,1.86,6.67a.4.4,0,0,0,.42.32c.35-.07.49-.3.45-.49l-.8-6.87L68.93,90.86a.39.39,0,0,0-.42-.31c-.35.06-.49.29-.45.49m1.82-2.77L72,101.1l1.68,6.71c.08.38.29.54.64.47a.58.58,0,0,0,.41-.68l-.8-6.87-3-12.67c-.08-.39-.29-.54-.64-.48s-.49.3-.41.69m107.82-22,1.44,7.35.76,3.87c-.25-.35-1-1.22-1.43-1.73l-7.42-8.18-3,.58,3.46,17.6,3.15-.62-1.52-7.73-.76-3.87c.25.35,1,1.21,1.43,1.73l7.68,8.53,2.8-.55-3.46-17.6Zm11.18,1.42,1.75-.35c3.33-.65,5.07.82,5.79,4.49.65,3.29-.51,5.73-3.83,6.38l-1.58.31Zm-.37,14.74,4.72-.93c4-.79,7.73-4.13,6.52-10.32-1.26-6.38-5-8-9.59-7.16l-5.07,1,0-.19Zm27.86-23.76,3.46,17.6,9.63-1.89-.69-3.48-6.3,1.24L219.7,58ZM265,52.74l1.75-.34c3.32-.66,5.06.81,5.79,4.49.64,3.28-.51,5.72-3.84,6.38l-1.57.3Zm-.38,14.74,4.73-.93a8,8,0,0,0,6.75-8.16L275.24,54c-1.61-4.51-4.93-5.67-8.95-4.88l-5.08,1,0-.19ZM120.94,82.66c.68,3.48,3,4,5.92,4.26,3.13.18,3.73.47,4,1.63.26,1.35-.5,2.11-2.42,2.48A5,5,0,0,1,124,89.89l-1.82,2.77A7.4,7.4,0,0,0,129,94.74c4.37-.86,5.84-3.56,5.19-6.84-.76-3.87-3.75-4.29-6.31-4.39s-3.34-.35-3.57-1.51c-.15-.77.22-1.65,2-2a4.88,4.88,0,0,1,4,1l1.78-3a7.48,7.48,0,0,0-6.31-1.57l-.52.1a5,5,0,0,0-4.26,6.07m18.26.43c-.61-3.1-.06-5.82,2.57-6.34s4.17,1.8,4.78,4.89,0,5.82-2.58,6.33-4.17-1.79-4.77-4.88m-3.33.65c1.07,5.42,4.41,8.58,8.61,7.75,4.38-.86,6.28-5,5.22-10.47s-4.42-8.57-8.79-7.71c-4.2.82-6.1,5-5,10.43m25-14.35h0l2,10.06c.57,2.9-.32,4.88-2.42,5.29s-3.66-1.09-4.23-4l-1.94-9.86-3.15.62L153,81.37c1,5,4.18,7.42,8,6.66,4-.79,5.9-4.17,4.88-9.4L164,68.77Zm41.51,1.28c1.1,5.61,4.59,8.55,8.79,7.72,3-.58,4.42-2.48,5.15-5.23l-3-1.23c-.57,1.72-1.29,2.67-2.69,2.94-2.45.49-4.31-1.56-5-4.85s.29-5.88,2.57-6.33A3.4,3.4,0,0,1,211.62,65l2.67-2.13a6,6,0,0,0-6.53-2.74c-4.2.83-6.45,5.09-5.39,10.5m30.1-5.91c-.61-3.1-.05-5.82,2.57-6.33s4.17,1.79,4.78,4.89.05,5.81-2.57,6.33-4.17-1.8-4.78-4.89m-3.32.65c1.06,5.42,4.41,8.58,8.61,7.75,4.37-.86,6.1-5,5-10.43s-4.42-8.58-8.62-7.75-6.1,5-5,10.43M254,51.09h0l2,10.06c.57,2.91-.32,4.89-2.42,5.3s-3.66-1.09-4.23-4l-1.94-9.87-3.15.62,1.94,9.87c1,5,4.18,7.41,8,6.66,4-.79,5.9-4.18,4.88-9.4l-1.94-9.86ZM79,85.86l2.27,13.42,1.6,6.32a.72.72,0,1,0,1.4-.28l-.9-6.45-3-13.47a.81.81,0,0,0-.85-.64c-.49.3-.63.52-.51,1.1m-7.12.8,2.39,14,1.64,6.5c.08.39.29.55.64.48s.49-.29.41-.68l-.94-6.65L73,86.45c-.07-.38-.29-.54-.64-.47a.6.6,0,0,0-.41.68m4.55-.89,2.39,14,1.64,6.51a.72.72,0,1,0,1.4-.27L81,99.35,77.87,85.49a.81.81,0,0,0-.85-.64.83.83,0,0,0-.55.92m-2.35.06,2.46,14.38,1.65,6.51q.1.57.63.48t.42-.69l-1-6.64L75.17,85.62a.54.54,0,1,0-1,.21m6.66-3.12,2.8,16.12,1.61,6.32a.81.81,0,0,0,.85.64.83.83,0,0,0,.55-.92l-.91-6.45-3.5-16a.72.72,0,1,0-1.4.28M83,80.87,86,98.35l1.61,6.32a.72.72,0,1,0,1.4-.28l-.91-6.45L84.36,80.6a.8.8,0,0,0-.85-.64l-.17,0c-.35.07-.45.49-.38.87m2.46-2.29a.88.88,0,0,0-.51,1.11l4.83,24.57a1.27,1.27,0,0,0,.89.82l19.42-3.81c3.85-.76,6.32-4.86,5.48-9.11S110.86,85,107,85.79a6,6,0,0,0-2.51,1.1c-1.89-6.86-8.21-11.25-14.68-10l-.88.17a13,13,0,0,0-3.52,1.49"/></clipPath><linearGradient id="linear-gradient" x1="-339.67" y1="333.27" x2="-337.7" y2="333.27" gradientTransform="matrix(0, 62.16, 62.16, 0, -20547.93, 21103.42)" gradientUnits="userSpaceOnUse"><stop offset="0" stop-color="#e29e31"/><stop offset="0.71" stop-color="#d56e2d"/><stop offset="1" stop-color="#d0592e"/></linearGradient></defs><title>Asset 9</title><g id="Layer_2" data-name="Layer 2"><g id="Layer_1-2" data-name="Layer 1"><g id="SoundCloud"><path class="cls-2" d="M331.66,43.56c12.24,60.65-62.14,74.79-153.39,92.72S12.87,168.52,1.21,108.49,63.35,33.7,154.6,15.77,319.41-17.09,331.66,43.56Z"/><path class="cls-3" d="M264.54,1c19,0,33.37,3,44,9.3,11.77,7,19,17.9,22.17,33.46,2.93,14.51,1,26.63-6,37-19.75,29.58-77.6,40.94-144.58,54.1l-2,.4c-40.69,8-79.12,15.54-109.45,15.54-19.19,0-33.71-3-44.38-9.27-11.84-6.92-19-17.8-22-33.27-5.25-27,6.68-46.45,37.55-61,28.51-13.49,70.54-21.75,115-30.49l2-.4C197,8.46,235,1,264.54,1h0m0-1C234.37,0,196.33,7.57,154.6,15.77,63.35,33.7-10.44,48.46,1.21,108.49c6.36,32.72,31.27,43.35,67.42,43.35,30.16,0,68.13-7.41,109.64-15.56,91.25-17.93,165.63-32.07,153.39-92.72C325,10.66,300.32,0,264.54,0Z"/><g class="cls-4"><rect class="cls-5" x="55.42" y="62.13" width="222.04" height="27.8" transform="translate(-11.53 33.51) rotate(-11.12)"/></g></g></g></g></svg>