<svg viewBox="0 0 333.26 150.45">
    <style>.cls-1{fill:#fff;}.cls-2{fill:#93278f;}.cls-3{fill:url(#linear-gradient);}.cls-4{fill:url(#linear-gradient-2);}.cls-5{fill:url(#linear-gradient-3);}.cls-6{fill:url(#linear-gradient-4);}.cls-7{fill:url(#linear-gradient-5);}.cls-8{fill:url(#linear-gradient-6);}.cls-9{fill:url(#linear-gradient-7);}.cls-10{fill:url(#linear-gradient-8);}.cls-11{fill:none;}.cls-12{fill:url(#linear-gradient-9);}.cls-13{fill:url(#linear-gradient-10);}</style>
    <linearGradient id="linear-gradient" x1="5.33" y1="-509.15" x2="-40.45" y2="-509.15" gradientTransform="matrix(1, 0, 0, -1, 98.71, -407.9)" gradientUnits="userSpaceOnUse">
        <stop offset="0" stop-color="#1682b4"/>
        <stop offset="0.03" stop-color="#1d75b2"/>
        <stop offset="0.15" stop-color="#3748ab"/>
        <stop offset="0.21" stop-color="#4137a8"/>
    </linearGradient>
    <linearGradient id="linear-gradient-2" x1="5.33" y1="-509.15" x2="-40.45" y2="-509.15" gradientTransform="matrix(1, 0, 0, -1, 99.31, -401.52)" gradientUnits="userSpaceOnUse">
        <stop offset="0" stop-color="#1682b4"/>
        <stop offset="0.18" stop-color="#244ab9"/>
        <stop offset="0.24" stop-color="#4137a8"/>
        <stop offset="0.44" stop-color="#a71c81"/>
        <stop offset="0.74" stop-color="#ef8907"/>
        <stop offset="1" stop-color="#f6a400"/>
    </linearGradient>
    <linearGradient id="linear-gradient-3" x1="5.33" y1="-509.15" x2="-40.45" y2="-509.15" gradientTransform="matrix(1, 0, 0, -1, 98.91, -405.77)" xlink:href="#linear-gradient-2"/>
    <linearGradient id="linear-gradient-4" x1="5.33" y1="-509.15" x2="-40.45" y2="-509.15" gradientTransform="matrix(1, 0, 0, -1, 99.11, -403.65)" xlink:href="#linear-gradient-2"/>
    <linearGradient id="linear-gradient-5" x1="5.33" y1="-500.61" x2="-40.45" y2="-500.61" gradientTransform="matrix(1, 0, 0, -1, 97.13, -407.75)" xlink:href="#linear-gradient"/>
    <linearGradient id="linear-gradient-6" x1="5.33" y1="-500.61" x2="-40.45" y2="-500.61" gradientTransform="matrix(1, 0, 0, -1, 97.52, -403.5)" xlink:href="#linear-gradient-2"/>
    <linearGradient id="linear-gradient-7" x1="5.33" y1="-492.07" x2="-40.45" y2="-492.07" gradientTransform="matrix(1, 0, 0, -1, 95.94, -403.35)" gradientUnits="userSpaceOnUse">
        <stop offset="0.4" stop-color="#b83664"/>
        <stop offset="0.64" stop-color="#ef8907"/>
        <stop offset="1" stop-color="#f6a400"/>
    </linearGradient>
    <linearGradient id="linear-gradient-8" x1="5.33" y1="-500.61" x2="-40.45" y2="-500.61" gradientTransform="matrix(1, 0, 0, -1, 97.33, -405.62)" gradientUnits="userSpaceOnUse">
        <stop offset="0.28" stop-color="#4137a8"/>
        <stop offset="0.51" stop-color="#a71c81"/>
    </linearGradient>
    <linearGradient id="linear-gradient-9" x1="-0.39" y1="-495.06" x2="-0.39" y2="-480.74" gradientTransform="matrix(1, 0, 0, -1, 95.54, -407.6)" gradientUnits="userSpaceOnUse">
        <stop offset="0.1" stop-color="#1d958d"/>
        <stop offset="0.73" stop-color="#29ab70"/>
    </linearGradient>
    <linearGradient id="linear-gradient-10" x1="-0.39" y1="-495.06" x2="-0.39" y2="-480.74" gradientTransform="matrix(1, 0, 0, -1, 93.99, -407.46)" xlink:href="#linear-gradient-9"/>
    <path class="cls-1" d="M69.57,150c-19.7,0-34.57-3.08-45.47-9.42-12.17-7.07-19.53-18.19-22.48-34-5.1-27.35,7.06-46.83,38.27-61.33,28.67-13.31,70.78-21.28,115.37-29.71l2-.38C197,7.59,234.5.5,263.91.5,283.4.5,298.14,3.59,309,10c12.09,7.09,19.47,18.28,22.57,34.19,2.85,14.67.78,26.9-6.32,37.38-20.08,29.6-78.1,40.57-145.28,53.26l-2.05.39C137.7,142.77,99.74,150,69.57,150Z"/>
    <path class="cls-2" d="M263.91,0V1c19.39,0,34,3.07,44.8,9.38,12,7,19.27,18.1,22.34,33.86,2.82,14.53.78,26.63-6.25,37-20,29.44-77.88,40.39-145,53.06l-2,.39c-40.17,7.59-78.1,14.77-108.23,14.77-19.6,0-34.4-3.06-45.22-9.35-12-7-19.31-18-22.24-33.68-5-27.08,7-46.39,38-60.78C68.71,32.36,110.8,24.4,155.36,16l2-.39C197.07,8.09,234.55,1,263.91,1V0m0,0c-30,0-67.55,7.2-108.74,15C63.8,32.27-10.09,46.5,1.13,106.61c6.19,33.17,31.57,43.84,68.44,43.84,29.94,0,67.46-7,108.42-14.79,91.37-17.27,165.85-30.88,154-91.61C325.54,10.69,300.4,0,263.91,0Z"/>
    <path d="M125,51.75l3.62,19.19.06.25a10.31,10.31,0,0,0-10-3.45c-5.21,1-12.46,6.72-10.2,18.66s10.82,14.74,16.71,13.63a11.07,11.07,0,0,0,8.07-6.82l.82,4.34,7.41-1.41-8.67-45.87Zm.26,40.92c-4.19.79-8.35-2.6-9.29-7.58s1.7-9.65,5.89-10.44,8.35,2.6,9.29,7.57S129.44,91.87,125.25,92.67Z"/>
    <path d="M162.89,80s-.11,5.6-5.57,6.64-8.15-2.73-8.89-6L167.53,77c.55-6.75-4.51-17.67-16.14-15.47-5.59,1.06-13,7.12-10.83,18.78s11.55,14.62,17.71,13.46c6.72-1.27,11.09-6,11.57-12.13Zm-10.1-11.81a5.47,5.47,0,0,1,6.76,4.44L147.3,74.91A7,7,0,0,1,152.79,68.16Z"/>
    <path d="M191.17,74.63s-.11,5.6-5.58,6.63c-5.32,1-8.14-2.73-8.88-6l19.1-3.61c.54-6.76-4.52-17.67-16.14-15.47-5.59,1-13,7.11-10.83,18.78s11.55,14.62,17.7,13.45c6.73-1.27,11.1-6,11.57-12.12ZM181.06,62.81a5.46,5.46,0,0,1,6.76,4.44l-12.24,2.32A7,7,0,0,1,181.06,62.81Z"/>
    <path d="M245.39,64.38S245.28,70,239.81,71c-5.31,1-8.14-2.73-8.88-6.05L250,61.35c.55-6.75-4.51-17.66-16.14-15.47-5.59,1.06-13,7.12-10.83,18.79s11.55,14.62,17.71,13.45c6.72-1.27,11.09-6,11.57-12.13Zm-10.1-11.82A5.47,5.47,0,0,1,242.05,57L229.8,59.32A7,7,0,0,1,235.29,52.56Z"/>
    <polygon points="194.71 54.08 196.05 61.19 211.13 58.34 198.77 77.98 200.11 85.09 225.68 80.26 224.27 72.8 208.19 75.84 220.69 56.25 219.4 49.41 194.71 54.08"/>
    <path d="M264.49,40.1c-3.59.68-5.39,3.93-5.88,6.07l-.76-4-7.66,1.45L256,74.52l7.67-1.45L259.9,53c-.46-2.42.83-5.23,3.1-5.66s4.17.71,4.62,4.84l7.1-1.34C274.66,46,271.78,38.72,264.49,40.1Z"/>
    <rect class="cls-3" x="93.53" y="98.24" width="9.59" height="6.01" transform="translate(-17.1 20.03) rotate(-10.71)"/>
    <rect class="cls-4" x="59.78" y="104.62" width="9.59" height="6.01" transform="translate(-18.87 13.87) rotate(-10.71)"/>
    <rect class="cls-5" x="82.31" y="100.37" width="9.5" height="6.01" transform="translate(-17.69 17.97) rotate(-10.71)"/>
    <rect class="cls-6" x="71.09" y="102.49" width="9.5" height="6.01" transform="translate(-18.28 15.93) rotate(-10.71)"/>
    <rect class="cls-7" x="91.94" y="89.85" width="9.59" height="6.01" transform="translate(-15.57 19.59) rotate(-10.71)"/>
    <rect class="cls-8" x="69.51" y="94.1" width="9.5" height="6.01" transform="translate(-16.75 15.49) rotate(-10.71)"/>
    <rect class="cls-9" x="67.92" y="85.72" width="9.5" height="6.01" transform="translate(-15.22 15.04) rotate(-10.71)"/>
    <rect class="cls-10" x="80.72" y="91.98" width="9.5" height="6.01" transform="translate(-16.16 17.53) rotate(-10.71)"/>
    <rect class="cls-11" x="90.91" y="87.4" width="9.59" height="0.02" transform="matrix(0.98, -0.19, 0.19, 0.98, -14.57, 19.3)"/>
    <rect class="cls-12" x="90.35" y="81.47" width="9.59" height="5.99" transform="translate(-14.03 19.15) rotate(-10.71)"/>
    <rect class="cls-13" x="88.81" y="73.29" width="9.59" height="6.01" transform="translate(-12.54 18.72) rotate(-10.71)"/>
</svg>
