<svg xmlns="http://www.w3.org/2000/svg" viewBox="0 0 333.64 148.49"><defs><style>.cls-1{fill:#fff;}.cls-2{fill:lime;}.cls-3{fill:#78cd67;}</style></defs><title>Asset 6</title><g id="Layer_2" data-name="Layer 2"><g id="Layer_1-2" data-name="Layer 1"><g id="Spotify"><path class="cls-1" d="M71,148c-20.31,0-35.59-3.11-46.73-9.51C11.79,131.3,4.35,120,1.51,103.87-3.32,76.47,9,57.11,40.39,42.93c28.81-13,71-20.56,115.67-28.54l2-.36C197.05,7.07,233.84.5,262.92.5,305.08.5,326.39,14.17,332,44.83c2.7,14.7.51,26.91-6.7,37.31-20.38,29.4-78.5,39.78-145.81,51.8l-2.05.37C138.07,141.34,100.84,148,71,148Z"/><path class="cls-2" d="M262.93,1c20,0,35.05,3.1,46,9.48,12.25,7.13,19.64,18.39,22.59,34.44,2.68,14.56.52,26.65-6.61,36.94-20.26,29.22-78.29,39.59-145.49,51.59l-2.05.36c-39.39,7-76.6,13.68-106.4,13.68-20.22,0-35.42-3.09-46.48-9.45C12.18,131,4.81,119.74,2,103.78-2.78,76.65,9.48,57.46,40.6,43.39c28.75-13,70.91-20.53,115.55-28.5l2-.36C197.11,7.57,233.88,1,262.92,1h0m0-1C233.29,0,196.36,6.69,156,13.9,64.43,30.25-9.6,43.73,1,104c6,33.82,32,44.53,70,44.53,29.61,0,66.45-6.53,106.58-13.69,91.54-16.35,166.16-29.2,155-90.06C326.27,10.73,300.46,0,262.92,0Z"/><path class="cls-1" d="M108.2,101.32h0a2.43,2.43,0,0,0-1.23-3c-9.67-4.29-20.6-3.73-32.51,1.65a2.3,2.3,0,0,0-1,3,2.07,2.07,0,0,0,2.74,1.26c10.88-4.91,20.77-5.47,29.38-1.65A2,2,0,0,0,108.2,101.32Z"/><path class="cls-1" d="M112.94,78.5a3.63,3.63,0,0,0-1.9-4.44c-13.56-5.8-32.92-3.12-43.79,2.83A3.5,3.5,0,0,0,66,81.47a3.08,3.08,0,0,0,4.22,1.58c9.47-5.18,27-7.65,38.77-2.61A3,3,0,0,0,112.94,78.5Z"/><path class="cls-1" d="M108.93,87C97.6,82,82.47,82.68,71.3,88.79a2.93,2.93,0,0,0-1.08,3.82,2.56,2.56,0,0,0,3.52,1.31c9.78-5.35,23.52-6,33.38-1.61,1.34.6,2.58,0,3.35-1.56h0A2.77,2.77,0,0,0,108.93,87Z"/><path class="cls-3" d="M83.63,51.87h0c-18.27,3.26-29.72,22-26.15,42s21.18,33.55,39.25,30.32,29.75-22,26.18-42S101.9,48.61,83.63,51.87Zm-7.48,52.35A2.07,2.07,0,0,1,73.41,103a2.3,2.3,0,0,1,1-3C86.37,94.61,97.3,94.05,107,98.34a2.43,2.43,0,0,1,1.23,3h0a2,2,0,0,1-2.67,1.25C96.92,98.75,87,99.31,76.15,104.22Zm34.32-13.47h0c-.77,1.51-2,2.16-3.35,1.56-9.87-4.4-23.6-3.74-33.38,1.61a2.56,2.56,0,0,1-3.52-1.31,2.94,2.94,0,0,1,1.07-3.82C82.47,82.68,97.6,82,108.93,87A2.77,2.77,0,0,1,110.47,90.75ZM109,80.44c-11.79-5-29.3-2.57-38.77,2.61A3.08,3.08,0,0,1,66,81.47a3.5,3.5,0,0,1,1.28-4.58c10.87-6,30.23-8.63,43.79-2.83a3.63,3.63,0,0,1,1.9,4.44A3,3,0,0,1,109,80.44Z"/><path class="cls-3" d="M146.36,75.13c-5.91-.49-7.11-1.35-7.5-3.55s1.15-3.79,3.78-4.26,5.26.16,8.3,1.87a.35.35,0,0,0,.3,0,.36.36,0,0,0,.21-.21l2-4.79a.44.44,0,0,0-.17-.54,16,16,0,0,0-11.59-2.22c-6.11,1.09-9.64,5.9-8.61,11.69,1.11,6.21,5.18,7.75,11.84,8.31,5.65.42,6.77,1.41,7.13,3.47.41,2.28-1.18,4-4.15,4.56-3.3.59-6.21-.15-9.73-2.5a.37.37,0,0,0-.29,0,.43.43,0,0,0-.23.19l-2.36,4.62a.44.44,0,0,0,.13.56,17.78,17.78,0,0,0,13.4,3.06c6.58-1.17,10.12-5.9,9-12-.92-5.19-4.24-7.56-11.45-8.18Z"/><path class="cls-3" d="M169.83,64.58a8.7,8.7,0,0,0-6.44,5l-.51-2.86a.39.39,0,0,0-.44-.34l-5.06.9a.4.4,0,0,0-.3.48l5.68,31.79a.4.4,0,0,0,.44.35l5.06-.91a.39.39,0,0,0,.3-.47l-1.79-10a8.87,8.87,0,0,0,7.75,2.29c5.29-.95,9.85-6.41,8.31-15s-7.7-12.17-13-11.22ZM177,76.85c.78,4.38-1.12,7.88-4.62,8.51s-6.64-2.12-7.4-6.37,1.28-7.91,4.74-8.53,6.5,2.07,7.28,6.39Z"/><path class="cls-3" d="M194.23,60.22c-6.82,1.22-11.13,8-9.81,15.39s7.64,12.13,14.42,10.92,11.17-8,9.85-15.35S201,59,194.23,60.22Zm3.68,20.61c-3.63.65-6.94-2.08-7.7-6.35s1.32-7.88,4.95-8.53,7,2.08,7.75,6.35-1.34,7.88-5,8.53Z"/><path class="cls-3" d="M221,56l-5.57,1-1.12-6.29a.41.41,0,0,0-.45-.35l-5.05.91a.39.39,0,0,0-.3.47l1.12,6.3-2.43.43a.4.4,0,0,0-.3.48l.86,4.8a.4.4,0,0,0,.44.35l2.43-.44,2.23,12.44c.89,5,3.61,7.17,8.08,6.37a8.67,8.67,0,0,0,4.5-2.15.42.42,0,0,0,.13-.39l-.82-4.57a.42.42,0,0,0-.24-.32.34.34,0,0,0-.36,0,6,6,0,0,1-2.83,1.33c-1.63.29-2.49-.4-2.82-2.22l-2.06-11.56,5.56-1a.39.39,0,0,0,.3-.47l-.86-4.81A.38.38,0,0,0,221,56Z"/><path class="cls-3" d="M240.4,52.53l-.14-.78c-.4-2.27.21-3.42,2-3.74a7.9,7.9,0,0,1,2.95.07.33.33,0,0,0,.32-.12.41.41,0,0,0,.1-.36l-.84-4.71a.41.41,0,0,0-.34-.34,12.92,12.92,0,0,0-4.32.08c-4.67.83-6.63,4.18-5.64,9.68l.21,1.19-2.43.43a.4.4,0,0,0-.3.48l.86,4.83a.39.39,0,0,0,.45.34l2.43-.43,3.43,19.19a.39.39,0,0,0,.44.34l5.06-.9a.41.41,0,0,0,.3-.48l-3.43-19.19,4.72-.84,10.67,17.89c-.47,2.16-1.2,2.71-2.3,2.9a5.48,5.48,0,0,1-3-.37.35.35,0,0,0-.3,0,.38.38,0,0,0-.18.26l-1,4.46a.43.43,0,0,0,.25.5,10,10,0,0,0,5.68.57c3.73-.67,5.45-3,6.35-8.46l4.3-26.64a.47.47,0,0,0-.11-.38.36.36,0,0,0-.33-.12l-5.27.94a.38.38,0,0,0-.3.34l-2.36,18-8.95-16a.4.4,0,0,0-.39-.2l-8.65,1.55Z"/><path class="cls-3" d="M229.15,54.51l-5.06.9a.41.41,0,0,0-.3.48l4.36,24.4a.39.39,0,0,0,.45.34l5.06-.9a.4.4,0,0,0,.29-.47l-4.35-24.4a.4.4,0,0,0-.45-.35Z"/><path class="cls-3" d="M224.66,43.84A4.1,4.1,0,1,0,229,47.21a3.9,3.9,0,0,0-4.35-3.37Z"/><path class="cls-3" d="M272.38,54.88a4,4,0,1,1,2.87-4.59,3.8,3.8,0,0,1-2.87,4.59Zm-1.32-7.5a3.63,3.63,0,1,0,3.82,3,3.41,3.41,0,0,0-3.82-3Zm1.49,3.81,1.29,1.38-.85.15-1.16-1.27-.78.14L271.3,53l-.71.13L269.85,49l1.67-.29a1.31,1.31,0,0,1,1.68,1.06,1.24,1.24,0,0,1-.65,1.41Zm-.93-1.76-.93.17.23,1.3.93-.16c.47-.08.7-.38.62-.79s-.39-.6-.85-.52Z"/></g></g></g></svg>