<svg viewBox="0 0 332.55 153.88">
    <style>.cls-1{fill:#fff;}.cls-2{fill:red;}.cls-3{fill:#da0200;}.cls-4{fill:#2c2c2c;}</style>
    <path class="cls-1" d="M67.34,153.38c-38.79,0-59.6-13.43-65.51-42.26C-3.75,83.87,8.06,64.17,39,49.13c28.43-13.81,70.4-22.51,114.84-31.72l2-.42C196.8,8.51,235.44.5,265.34.5,303.7.5,324.44,14,330.6,43c3.11,14.62,1.26,26.88-5.66,37.48-19.56,30-77.38,41.93-144.33,55.8l-2,.42C137.15,145.27,98,153.38,67.34,153.38Z"/>
    <path class="cls-2" d="M265.35,1c18.43,0,32.44,3,42.84,9.19,11.5,6.85,18.67,17.61,21.92,32.89,3.09,14.49,1.25,26.62-5.59,37.1-19.44,29.78-77.17,41.74-144,55.59l-2,.43C137.07,144.78,98,152.88,67.34,152.88c-18.62,0-32.75-3-43.2-9.16C12.57,136.9,5.43,126.2,2.32,111-3.21,84,8.52,64.5,39.24,49.58,67.61,35.8,109.55,27.1,154,17.9l2-.42C196.86,9,235.48,1,265.35,1h0m0-1c-30.44,0-69.1,8.12-111.58,16.92C62.7,35.79-10.93,51.31,1.34,111.22c6.58,32.09,30.86,42.66,66,42.66,30.45,0,69.06-7.94,111.34-16.71C269.74,118.3,344,103.4,331.09,42.88,324.23,10.6,300.15,0,265.34,0Z"/>
    <path class="cls-3" d="M118,67.81a9.38,9.38,0,0,0-7.53-5.5c-5.74-.49-27.43,4-27.43,4s-21.68,4.49-26.75,7.21a9.37,9.37,0,0,0-4.73,8c-.21,6.28,2.37,18.75,2.37,18.75s2.59,12.47,5.28,18.15a9.36,9.36,0,0,0,7.53,5.5c5.74.48,27.42-4,27.42-4s21.69-4.49,26.76-7.22a9.39,9.39,0,0,0,4.73-8c.21-6.28-2.38-18.75-2.38-18.75S120.64,73.49,118,67.81Z"/>
    <polygon class="cls-1" points="84 106.08 99.63 90.85 79.24 83.08 84 106.08"/>
    <path class="cls-4" d="M159.09,101.45a8.54,8.54,0,0,1-3.92-4.16,35.11,35.11,0,0,1-2.65-8.42l-1-4.88a31.6,31.6,0,0,1-.81-8.92,8.89,8.89,0,0,1,2.1-5.44A9.48,9.48,0,0,1,158,67a8.92,8.92,0,0,1,5.72.41,9,9,0,0,1,4,4.18,32.88,32.88,0,0,1,2.74,8.49l1,4.88a33.77,33.77,0,0,1,.88,8.82,8.8,8.8,0,0,1-2,5.39,11.42,11.42,0,0,1-11.26,2.3Zm6.59-6.85a18.61,18.61,0,0,0-.54-5.49L163,78.64a18.13,18.13,0,0,0-1.67-5.17A2.11,2.11,0,0,0,159,72.21a2.09,2.09,0,0,0-1.61,2.08,18.1,18.1,0,0,0,.52,5.41L160,90.17a19.44,19.44,0,0,0,1.66,5.26A2.07,2.07,0,0,0,164,96.66,2.12,2.12,0,0,0,165.68,94.6Z"/>
    <path class="cls-4" d="M261.65,66.33,262,68c.45,2.16.84,3.76,1.18,4.82a5,5,0,0,0,1.21,2.2,2,2,0,0,0,1.84.39,2.13,2.13,0,0,0,1.83-1.75,12.54,12.54,0,0,0-.29-4.51l6-.84c.09.29.19.68.3,1.19q1,4.66-.87,7.44a9,9,0,0,1-6,3.66q-5.06,1.05-7.82-2t-4.28-10.43l-1.22-5.87q-1.56-7.56-.18-11.48c.92-2.61,3.09-4.27,6.49-5a9.05,9.05,0,0,1,5.7.31A7.89,7.89,0,0,1,269.42,50a35.82,35.82,0,0,1,2.49,8.17L273.1,64l-11.45,2.38ZM259.59,52a5.11,5.11,0,0,0-.22,2.47c.11,1.11.39,2.75.85,5l.5,2.41,5-1-.5-2.41A47.46,47.46,0,0,0,264,53.52a5.2,5.2,0,0,0-1.21-2.21,1.94,1.94,0,0,0-1.75-.35A1.89,1.89,0,0,0,259.59,52Z"/>
    <path class="cls-4" d="M139.54,91,125.31,61.52l6.8-1.41,5.64,13.52c1.42,3.33,2.54,6.18,3.38,8.56l.2,0q-.2-2.7-.29-9.14l-.11-14.73,6.8-1.41-1.45,32.72,3.09,14.91-6.74,1.39L139.54,91Z"/>
    <path class="cls-4" d="M189.57,61.12l7,33.6-5.35,1.11-1.45-4-.15,0q-1.22,5.11-5.58,6a5,5,0,0,1-4.91-1.27c-1.26-1.26-2.22-3.44-2.86-6.55L171,65l6.85-1.41L183,88.21a8.45,8.45,0,0,0,1.11,3.12,1.58,1.58,0,0,0,1.69.65,2.91,2.91,0,0,0,1.58-1,3.72,3.72,0,0,0,.9-1.79l-5.53-26.69Z"/>
    <path class="cls-4" d="M224.67,53.85l7,33.6-5.35,1.11-1.45-4-.15,0q-1.22,5.12-5.58,6a5.05,5.05,0,0,1-4.91-1.26c-1.26-1.26-2.22-3.45-2.86-6.56l-5.2-25.1L213,56.27l5.11,24.67a8.39,8.39,0,0,0,1.11,3.11,1.55,1.55,0,0,0,1.69.65,2.86,2.86,0,0,0,1.58-1,3.69,3.69,0,0,0,.9-1.78l-5.53-26.7Z"/>
    <path class="cls-4" d="M206.86,51l-6.79,1.41,8.27,39.91-6.7,1.38-8.27-39.9-6.79,1.41-1.26-6.09,20.28-4.2L206.86,51Z"/>
    <path class="cls-4" d="M248.43,54.52a9.2,9.2,0,0,0-3-4.18,5.21,5.21,0,0,0-4.11-.64,6,6,0,0,0-3.28,1.91,7.94,7.94,0,0,0-1.89,3.62h-.05l-3.67-17.7-6.59,1.37,9.88,47.68,5.65-1.17,0-3.32.15,0a6.31,6.31,0,0,0,2.93,2.19,6.75,6.75,0,0,0,3.73.26q3.47-.72,4.37-4.6T252,68.54l-1.1-5.32A50.19,50.19,0,0,0,248.43,54.52Zm-3.43,15a48.1,48.1,0,0,1,.92,5.81,6.82,6.82,0,0,1-.31,3.15,2.07,2.07,0,0,1-1.55,1.24,3,3,0,0,1-1.65-.12A3.25,3.25,0,0,1,241,78.54L237,59.46a5,5,0,0,1,.72-2.49,2.58,2.58,0,0,1,1.65-1.26,1.85,1.85,0,0,1,1.8.57,7.75,7.75,0,0,1,1.43,2.88c.44,1.39.94,3.41,1.48,6Z"/>
</svg>