<svg viewBox="0 0 330.52 162.47">
    <style>.cls-1{fill:#fff;}.cls-2{fill:red;}.cls-3,.cls-4{fill:#da0200;}.cls-4{stroke:#fff;stroke-width:1.2px;}.cls-5{fill:#262626;}</style>
    <path class="cls-1" d="M62.9,162c-34.53,0-53.75-12.58-60.49-39.59S6.63,75.21,36.92,58.87c27.82-15,69.38-25.49,113.38-36.58l2-.51C197.6,10.36,236.72.5,267.59.5,301.79.5,321,13.15,328,40.31c3.73,14.47,2.4,26.8-4.07,37.68-18.26,30.76-75.51,45.19-141.81,61.9l-2,.51C136.09,151.49,94.53,162,62.9,162Z"/>
    <path class="cls-2" d="M267.6,1c33.93,0,53,12.53,59.9,39.43,3.69,14.34,2.38,26.54-4,37.31-18.15,30.58-75.32,45-141.5,61.67l-2,.51C136,151,94.47,161.47,62.9,161.47c-34.26,0-53.33-12.46-60-39.21S7.11,75.53,37.16,59.31c27.76-15,69.3-25.45,113.27-36.54l2-.5C197.68,10.86,236.77,1,267.59,1h0m0-1c-31.4,0-72.21,10.41-117.41,21.8C60,44.53-12.89,63.18,1.92,122.5c7.41,29.7,29.48,40,61,40s72.27-10.23,117.3-21.58c90.17-22.74,163.7-40.79,148.26-100.71C320.76,10.3,298.83,0,267.59,0Z"/>
    <path class="cls-3" d="M99.76,136.21c18.29-4.62,29.05-24.51,24-44.43S99.87,59.44,81.57,64.06s-29,24.5-24,44.42S81.47,140.82,99.76,136.21Z"/>
    <path class="cls-4" d="M96.12,121.78c11-2.77,17.43-14.7,14.42-26.66S96.19,75.72,85.21,78.49s-17.43,14.7-14.42,26.65S85.15,124.54,96.12,121.78Z"/>
    <path class="cls-5" d="M157.56,75.73c.58,9,2,19.75,2.49,24.23l-.44.11c-1.64-4.33-5.46-14.43-9.22-22.46l-9.32-20-12.3,3.1,14.29,56.66,7.62-1.92L138.9,68.75l1.86,4.17,18.42,40.39,7.63-1.92-3.05-44.27-.29-4.59,11.78,46.74,7.62-1.93L168.59,50.68,156.18,53.8Zm43.78,17.91a4.42,4.42,0,0,1-3.05,3.57c-1.77.45-2.84-.86-3.76-4.51l-7.66-30.4-8.7,2.2L186,95.43c1.93,7.64,5.14,10.55,10.31,9.25,3.53-.89,5.93-3.29,6.87-7.84l.19,0,2,4.87,6.81-1.72L201.74,58.56,193,60.75l8.29,32.89Zm21.34-23c-3.39-1.52-5.53-2.56-6.35-5.8-.58-2.3.11-3.83,2.5-4.44s3.74,1,5.36,7.2l7.23-2.18c-2-10.2-6.11-13.61-14.12-11.59-7.43,1.87-10.18,6.37-8.33,13.73,1.69,6.69,5.48,9,11.4,11.71,5.11,2.45,8.06,3.79,8.78,6.63a3.42,3.42,0,0,1-2.55,4.52c-2.59.65-4.76-1.61-5.54-6.3l-7.33,2c1,8.87,5.5,13.05,14.07,10.89,7.5-1.89,10.47-6.59,8.6-14C234.69,76.25,230.86,74.34,222.68,70.66ZM241.63,48.5l-8.32,2.1L243.74,92l8.33-2.1L241.63,48.5Zm-8.22-15.32c-3.21.81-4.41,2.48-3.28,6.94s3,5.36,6.17,4.55,4.44-2.35,3.29-6.93C238.51,33.49,236.69,32.36,233.41,33.18Zm42.86,34.74-7.72,1.52c1.84,7.29,1.68,9.84-.9,10.49S264,78.06,261.8,69.48l-2-8c-2.09-8.32-2.25-11.07.34-11.72,2.39-.61,3.65,1.73,5.59,9.43l7.42-2.44c-1.11-6.54-3-10.74-5.93-12.65-2.17-1.39-5-1.61-8.56-.71-8.44,2.13-10.68,7.87-7.24,21.5l1.46,5.81c3.54,14,7.64,17.83,16.28,15.65,3.65-.92,6-2.37,7.23-4.55,1.83-3.07,1.72-7.49-.08-13.86Z"/>
    <path class="cls-1" d="M101.25,97.47l-14.52,15L81.35,91.14Z"/>
</svg>